<svg width="18" height="18" viewBox="0 0 18 18" fill="none" xmlns="http://www.w3.org/2000/svg">
<g opacity="0.7" style="mix-blend-mode:plus-lighter">
<path d="M17.5 3.125C17.5 4.88281 16.0938 6.25 14.375 6.25C13.4766 6.25 12.6562 5.89844 12.0703 5.27344L6.17188 8.24219C6.21094 8.39844 6.25 8.59375 6.25 8.75C6.25 8.94531 6.21094 9.14062 6.17188 9.29688L12.0703 12.2266C12.6562 11.6406 13.4766 11.25 14.375 11.25C16.0938 11.25 17.5 12.6562 17.5 14.375C17.5 16.1328 16.0938 17.5 14.375 17.5C12.6172 17.5 11.25 16.1328 11.25 14.375C11.25 14.0234 11.2891 13.6328 11.4062 13.3203L5.74219 10.4688C5.15625 11.3281 4.21875 11.875 3.125 11.875C1.36719 11.875 0 10.5078 0 8.75C0 7.03125 1.36719 5.625 3.125 5.625C4.21875 5.625 5.15625 6.21094 5.74219 7.07031L11.4062 4.21875C11.2891 3.86719 11.25 3.51562 11.25 3.125C11.25 1.40625 12.6172 0 14.375 0C16.0938 0 17.5 1.40625 17.5 3.125ZM3.125 10.625C3.78906 10.625 4.375 10.2734 4.72656 9.6875C5.07812 9.14062 5.07812 8.39844 4.72656 7.8125C4.375 7.26562 3.78906 6.875 3.125 6.875C2.42188 6.875 1.83594 7.26562 1.48438 7.8125C1.13281 8.39844 1.13281 9.14062 1.48438 9.6875C1.83594 10.2734 2.42188 10.625 3.125 10.625ZM16.25 3.125C16.25 2.46094 15.8594 1.875 15.3125 1.52344C14.7266 1.17188 13.9844 1.17188 13.4375 1.52344C12.8516 1.875 12.5 2.46094 12.5 3.125C12.5 3.82812 12.8516 4.41406 13.4375 4.76562C13.9844 5.11719 14.7266 5.11719 15.3125 4.76562C15.8594 4.41406 16.25 3.82812 16.25 3.125ZM14.375 16.25C15.0391 16.25 15.625 15.8984 15.9766 15.3125C16.3281 14.7656 16.3281 14.0234 15.9766 13.4375C15.625 12.8906 15.0391 12.5 14.375 12.5C13.6719 12.5 13.0859 12.8906 12.7344 13.4375C12.3828 14.0234 12.3828 14.7656 12.7344 15.3125C13.0859 15.8984 13.6719 16.25 14.375 16.25Z" fill="white"/>
</g>
</svg>
